<mxfile host="app.diagrams.net" modified="2021-08-25T03:59:15.213Z" agent="5.0 (Macintosh; Intel Mac OS X 10_15_7) AppleWebKit/537.36 (KHTML, like Gecko) Chrome/92.0.4515.159 Safari/537.36" etag="ROKvWCF0y6gekg8Zwonx" version="14.9.8" type="github">
  <diagram id="oxQ0tCmAqCVBjGPtj2yi" name="第 1 页">
    <mxGraphModel dx="1773" dy="614" grid="1" gridSize="10" guides="1" tooltips="1" connect="1" arrows="1" fold="1" page="1" pageScale="1" pageWidth="827" pageHeight="1169" math="0" shadow="0">
      <root>
        <mxCell id="0" />
        <mxCell id="1" parent="0" />
        <mxCell id="catxdE13YpxVejJ2hm3M-1" value="SharedBlobFileMetaData" style="swimlane;fontStyle=1;align=center;verticalAlign=top;childLayout=stackLayout;horizontal=1;startSize=26;horizontalStack=0;resizeParent=1;resizeParentMax=0;resizeLast=0;collapsible=1;marginBottom=0;sketch=1;glass=0;shadow=0;rounded=1;fillColor=#d5e8d4;strokeColor=#82b366;" vertex="1" parent="1">
          <mxGeometry x="280" y="91" width="160" height="164" as="geometry" />
        </mxCell>
        <mxCell id="catxdE13YpxVejJ2hm3M-2" value="uint64_t blob_file_number_&#xa;uint64_t total_blob_count_&#xa;uint64_t total_blob_bytes_&#xa;std::string checksum_method_&#xa;std::string checksum_value_" style="text;strokeColor=none;fillColor=none;align=left;verticalAlign=top;spacingLeft=4;spacingRight=4;overflow=hidden;rotatable=0;points=[[0,0.5],[1,0.5]];portConstraint=eastwest;" vertex="1" parent="catxdE13YpxVejJ2hm3M-1">
          <mxGeometry y="26" width="160" height="104" as="geometry" />
        </mxCell>
        <mxCell id="catxdE13YpxVejJ2hm3M-3" value="" style="line;strokeWidth=1;fillColor=none;align=left;verticalAlign=middle;spacingTop=-1;spacingLeft=3;spacingRight=3;rotatable=0;labelPosition=right;points=[];portConstraint=eastwest;" vertex="1" parent="catxdE13YpxVejJ2hm3M-1">
          <mxGeometry y="130" width="160" height="8" as="geometry" />
        </mxCell>
        <mxCell id="catxdE13YpxVejJ2hm3M-4" value="+ method(type): type" style="text;strokeColor=none;fillColor=none;align=left;verticalAlign=top;spacingLeft=4;spacingRight=4;overflow=hidden;rotatable=0;points=[[0,0.5],[1,0.5]];portConstraint=eastwest;" vertex="1" parent="catxdE13YpxVejJ2hm3M-1">
          <mxGeometry y="138" width="160" height="26" as="geometry" />
        </mxCell>
        <mxCell id="catxdE13YpxVejJ2hm3M-5" value="BlobFileMetaDataDelta" style="swimlane;fontStyle=1;align=center;verticalAlign=top;childLayout=stackLayout;horizontal=1;startSize=26;horizontalStack=0;resizeParent=1;resizeParentMax=0;resizeLast=0;collapsible=1;marginBottom=0;rounded=1;shadow=0;glass=0;sketch=1;fillColor=#d5e8d4;strokeColor=#82b366;" vertex="1" parent="1">
          <mxGeometry x="-30" y="80" width="160" height="164" as="geometry" />
        </mxCell>
        <mxCell id="catxdE13YpxVejJ2hm3M-6" value="shared_meta_&#xa;uint64_t additional_garbage_count_&#xa;uint64_t additional_garbage_bytes_&#xa;newly_linked_ssts_&#xa;newly_unlinked_ssts_" style="text;strokeColor=none;fillColor=none;align=left;verticalAlign=top;spacingLeft=4;spacingRight=4;overflow=hidden;rotatable=0;points=[[0,0.5],[1,0.5]];portConstraint=eastwest;" vertex="1" parent="catxdE13YpxVejJ2hm3M-5">
          <mxGeometry y="26" width="160" height="104" as="geometry" />
        </mxCell>
        <mxCell id="catxdE13YpxVejJ2hm3M-7" value="" style="line;strokeWidth=1;fillColor=none;align=left;verticalAlign=middle;spacingTop=-1;spacingLeft=3;spacingRight=3;rotatable=0;labelPosition=right;points=[];portConstraint=eastwest;" vertex="1" parent="catxdE13YpxVejJ2hm3M-5">
          <mxGeometry y="130" width="160" height="8" as="geometry" />
        </mxCell>
        <mxCell id="catxdE13YpxVejJ2hm3M-8" value="+ method(type): type" style="text;strokeColor=none;fillColor=none;align=left;verticalAlign=top;spacingLeft=4;spacingRight=4;overflow=hidden;rotatable=0;points=[[0,0.5],[1,0.5]];portConstraint=eastwest;" vertex="1" parent="catxdE13YpxVejJ2hm3M-5">
          <mxGeometry y="138" width="160" height="26" as="geometry" />
        </mxCell>
        <mxCell id="catxdE13YpxVejJ2hm3M-9" style="edgeStyle=orthogonalEdgeStyle;rounded=0;orthogonalLoop=1;jettySize=auto;html=1;entryX=0.006;entryY=0.394;entryDx=0;entryDy=0;entryPerimeter=0;sketch=1;" edge="1" parent="1" source="catxdE13YpxVejJ2hm3M-6" target="catxdE13YpxVejJ2hm3M-2">
          <mxGeometry relative="1" as="geometry" />
        </mxCell>
        <mxCell id="catxdE13YpxVejJ2hm3M-10" value="VersionBuilder::Rep" style="swimlane;fontStyle=1;align=center;verticalAlign=top;childLayout=stackLayout;horizontal=1;startSize=26;horizontalStack=0;resizeParent=1;resizeParentMax=0;resizeLast=0;collapsible=1;marginBottom=0;rounded=1;shadow=0;glass=0;sketch=1;fillColor=#d5e8d4;strokeColor=#82b366;" vertex="1" parent="1">
          <mxGeometry x="-590" y="123" width="390" height="86" as="geometry" />
        </mxCell>
        <mxCell id="catxdE13YpxVejJ2hm3M-11" value="std::map&lt;uint64_t, BlobFileMetaDataDelta&gt; blob_file_meta_deltas_" style="text;strokeColor=none;fillColor=none;align=left;verticalAlign=top;spacingLeft=4;spacingRight=4;overflow=hidden;rotatable=0;points=[[0,0.5],[1,0.5]];portConstraint=eastwest;" vertex="1" parent="catxdE13YpxVejJ2hm3M-10">
          <mxGeometry y="26" width="390" height="26" as="geometry" />
        </mxCell>
        <mxCell id="catxdE13YpxVejJ2hm3M-12" value="" style="line;strokeWidth=1;fillColor=none;align=left;verticalAlign=middle;spacingTop=-1;spacingLeft=3;spacingRight=3;rotatable=0;labelPosition=right;points=[];portConstraint=eastwest;" vertex="1" parent="catxdE13YpxVejJ2hm3M-10">
          <mxGeometry y="52" width="390" height="8" as="geometry" />
        </mxCell>
        <mxCell id="catxdE13YpxVejJ2hm3M-13" value="+ method(type): type" style="text;strokeColor=none;fillColor=none;align=left;verticalAlign=top;spacingLeft=4;spacingRight=4;overflow=hidden;rotatable=0;points=[[0,0.5],[1,0.5]];portConstraint=eastwest;" vertex="1" parent="catxdE13YpxVejJ2hm3M-10">
          <mxGeometry y="60" width="390" height="26" as="geometry" />
        </mxCell>
        <mxCell id="catxdE13YpxVejJ2hm3M-14" style="edgeStyle=orthogonalEdgeStyle;rounded=0;sketch=1;orthogonalLoop=1;jettySize=auto;html=1;exitX=1;exitY=0.5;exitDx=0;exitDy=0;" edge="1" parent="1" source="catxdE13YpxVejJ2hm3M-11" target="catxdE13YpxVejJ2hm3M-5">
          <mxGeometry relative="1" as="geometry">
            <mxPoint x="-250" y="119" as="targetPoint" />
          </mxGeometry>
        </mxCell>
      </root>
    </mxGraphModel>
  </diagram>
</mxfile>
